# xmcd CD database file
#
# Track frame offsets:
#	150
#	31017
#	66409
#	89635
#	113410
#	145059
#	170346
#	190746
#	215571
#	251196
#	280296
#
# Disc length: 4040 seconds
#
# Revision: 2
# Processed by: cddbd v1.5.2PL0 Copyright (c) Steve Scherf et al.
# Submitted via: CDex 1.70beta2
#
DISCID=9f0fc60b
DTITLE=Vladimir Karparov - Thracian Dance
DYEAR=2007
DGENRE=Jazz
TTITLE0=Thracian Dance
TTITLE1=Vine Leaves
TTITLE2=Tangra
TTITLE3=Ulitzata
TTITLE4=Kreuzberg CueCheck
TTITLE5=Song for N
TTITLE6=Gipsy Smile
TTITLE7=Apollonia
TTITLE8=Take Five
TTITLE9=Hle Hle
TTITLE10=Na Mama
EXTD=YEAR: 2007
EXTT0=
EXTT1=
EXTT2=
EXTT3=
EXTT4=
EXTT5=
EXTT6=
EXTT7=
EXTT8=
EXTT9=
EXTT10=
PLAYORDER=
